<svg height="96" width="96" xmlns="http://www.w3.org/2000/svg" xmlns:xlink="http://www.w3.org/1999/xlink"><linearGradient id="a"><stop offset="0" stop-color="#b3b3b3"/><stop offset="1" stop-color="#d2d2d2"/></linearGradient><linearGradient id="b"><stop offset="0" stop-color="#fff"/><stop offset="1" stop-color="#fff" stop-opacity="0"/></linearGradient><linearGradient id="c" gradientUnits="userSpaceOnUse" x1="36.357143" x2="36.357143" xlink:href="#b" y1="6" y2="63.893143"/><radialGradient id="d" cx="48" cy="90.171875" gradientTransform="matrix(1.1573129 0 0 .99590774 -7.551021 .197132)" gradientUnits="userSpaceOnUse" r="42" xlink:href="#b"/><linearGradient id="e" gradientUnits="userSpaceOnUse" x1="48" x2="48" y1="90" y2="5.987717"><stop offset="0" stop-color="#b4b4b4"/><stop offset="1" stop-color="#dcdcdc"/></linearGradient><linearGradient id="f"><stop offset="0" stop-opacity="0"/><stop offset=".30000001" stop-opacity="0"/><stop offset=".5" stop-opacity=".117647"/><stop offset=".69999999" stop-opacity="0"/><stop offset="1" stop-opacity="0"/></linearGradient><linearGradient id="g"><stop offset="0" stop-color="#fff" stop-opacity="0"/><stop offset=".30000001" stop-color="#fff" stop-opacity="0"/><stop offset=".5" stop-color="#fff" stop-opacity=".612403"/><stop offset=".75264549" stop-color="#fff" stop-opacity="0"/><stop offset="1" stop-color="#fff" stop-opacity="0"/></linearGradient><linearGradient id="h"><stop offset="0" stop-color="#d6d6d6"/><stop offset="1" stop-color="#eaeaea"/></linearGradient><linearGradient id="i" gradientTransform="matrix(-.21428571 0 0 .21428571 35.285714 18.714286)" gradientUnits="userSpaceOnUse" x1="6" x2="48" xlink:href="#f" y1="48" y2="81.071426"/><linearGradient id="j" gradientUnits="userSpaceOnUse" x1="16.00000026" x2="25.00000008" xlink:href="#f" y1="29.00000008" y2="36.08673408112"/><linearGradient id="k" gradientTransform="matrix(.21428571 0 0 -.21428571 14.714286 39.285714)" gradientUnits="userSpaceOnUse" x1="13.321428" x2="48" xlink:href="#g" y1="48" y2="84.285713"/><linearGradient id="l" gradientTransform="matrix(-.21428571 0 0 -.21428571 35.285714 39.285714)" gradientUnits="userSpaceOnUse" x1="13.321428" x2="48" xlink:href="#g" y1="48" y2="84.285713"/><linearGradient id="m" gradientUnits="userSpaceOnUse" x1="28.3290822277" x2="21.58673514827" xlink:href="#a" y1="37.9999999" y2="20.00000026"/><linearGradient id="n" gradientUnits="userSpaceOnUse" x1="21.99999984" x2="35.9999992" xlink:href="#h" y1="-25.00000046" y2="-25.00000046"/><linearGradient id="o" gradientUnits="userSpaceOnUse" x1="25" x2="25" xlink:href="#b" y1="36" y2="21.964331"/><linearGradient id="p" gradientUnits="userSpaceOnUse" x1="27" x2="27" xlink:href="#b" y1="76" y2="61.964331"/><linearGradient id="q" gradientUnits="userSpaceOnUse" x1="61.99999984" x2="75.9999992" xlink:href="#h" y1="-27.00000046" y2="-27.00000046"/><linearGradient id="r" gradientTransform="matrix(-.21428571 0 0 .21428571 57.285714 58.714286)" gradientUnits="userSpaceOnUse" x1="6" x2="48" xlink:href="#f" y1="48" y2="81.071426"/><linearGradient id="s" gradientUnits="userSpaceOnUse" x1="18.00000026" x2="27.00000008" xlink:href="#f" y1="69.00000008" y2="76.08673408112"/><linearGradient id="t" gradientTransform="matrix(.21428571 0 0 -.21428571 16.714286 79.285714)" gradientUnits="userSpaceOnUse" x1="13.321428" x2="48" xlink:href="#g" y1="48" y2="84.285713"/><linearGradient id="u" gradientTransform="matrix(-.21428571 0 0 -.21428571 57.285714 79.285714)" gradientUnits="userSpaceOnUse" x1="13.321428" x2="48" xlink:href="#g" y1="48" y2="84.285713"/><linearGradient id="v" gradientUnits="userSpaceOnUse" x1="30.3290822277" x2="23.58673514827" xlink:href="#a" y1="77.9999999" y2="60.00000026"/><linearGradient id="w" gradientTransform="matrix(1.0058652 0 0 .994169 100 0)" gradientUnits="userSpaceOnUse" x1="45.447727" x2="45.447727" y1="92.539597" y2="7.01654"><stop offset="0"/><stop offset="1" stop-opacity=".588235"/></linearGradient><linearGradient id="x" gradientTransform="matrix(1.0238095 0 0 1.0119048 -1.142857 -98.071429)" gradientUnits="userSpaceOnUse" x1="32.251034" x2="32.251034" xlink:href="#w" y1="6.131708" y2="90.238609"/><linearGradient id="y" gradientTransform="translate(0 -97)" gradientUnits="userSpaceOnUse" x1="32.251034" x2="32.251034" xlink:href="#w" y1="6.131708" y2="90.238609"/><g><g fill="url(#x)"><path d="m12-95.03125c-5.5110903 0-10.03125 4.52016-10.03125 10.03125v71c0 5.5110902 4.5201598 10.03125 10.03125 10.03125h72c5.51109 0 10.03125-4.5201597 10.03125-10.03125v-71c0-5.51109-4.52016-10.03125-10.03125-10.03125z" opacity=".08" transform="scale(1 -1)"/><path d="m12-94.03125c-4.971633 0-9.03125 4.059617-9.03125 9.03125v71c0 4.9716329 4.0596171 9.03125 9.03125 9.03125h72c4.971633 0 9.03125-4.059617 9.03125-9.03125v-71c0-4.971633-4.059617-9.03125-9.03125-9.03125z" opacity=".1" transform="scale(1 -1)"/><path d="m12-93c-4.4091333 0-8 3.590867-8 8v71c0 4.4091333 3.5908667 8 8 8h72c4.409133 0 8-3.5908667 8-8v-71c0-4.409133-3.590867-8-8-8z" opacity=".2" transform="scale(1 -1)"/><rect height="85" opacity=".3" rx="7" transform="scale(1 -1)" width="86" x="5" y="-92"/></g><rect fill="url(#y)" height="84" opacity=".45" rx="6" transform="scale(1 -1)" width="84" x="6" y="-91"/></g><rect fill="url(#e)" height="84" rx="6" width="84" x="6" y="6"/><path d="m12 6c-3.324 0-6 2.676-6 6v2 68 2c0 .334721.04135.6507.09375.96875.0487.295596.09704.596915.1875.875.00988.03038.020892.0636.03125.09375.098865.287771.2348802.547452.375.8125.1445918.273507.3156161.535615.5.78125s.3737765.473472.59375.6875c.439947.428056.94291.814526 1.5 1.09375.278545.139612.5734731.246947.875.34375-.2562018-.100222-.4867109-.236272-.71875-.375-.00741-.0044-.023866.0045-.03125 0-.031933-.0193-.062293-.04251-.09375-.0625-.120395-.0767-.2310226-.163513-.34375-.25-.1061728-.0808-.2132809-.161112-.3125-.25-.1779299-.161433-.3474596-.345388-.5-.53125-.1075789-.130255-.2183939-.265285-.3125-.40625-.025089-.03838-.038446-.08587-.0625-.125-.064763-.103032-.1302275-.204517-.1875-.3125-.1010083-.194706-.2056748-.415701-.28125-.625-.00796-.02181-.023589-.04055-.03125-.0625-.0318251-.09195-.0358045-.186831-.0625-.28125-.0303323-.106618-.0703894-.203031-.09375-.3125-.0728786-.341512-.125-.698205-.125-1.0625v-2-68-2c0-2.781848 2.2181517-5 5-5h2 68 2c2.781848 0 5 2.218152 5 5v2 68 2c0 .364295-.05212.720988-.125 1.0625-.04415.206893-.08838.397658-.15625.59375-.0077.02195-.0233.04069-.03125.0625-.06274.173739-.138383.367449-.21875.53125-.04158.0828-.07904.169954-.125.25-.0546.09721-.126774.18835-.1875.28125-.09411.140965-.204921.275995-.3125.40625-.143174.17445-.303141.346998-.46875.5-.01117.0102-.01998.02115-.03125.03125-.138386.125556-.285091.234436-.4375.34375-.102571.07315-.204318.153364-.3125.21875-.0074.0045-.02384-.0044-.03125 0-.232039.138728-.462548.274778-.71875.375.301527-.0968.596455-.204138.875-.34375.55709-.279224 1.060053-.665694 1.5-1.09375.219973-.214028.409366-.441865.59375-.6875s.355408-.507743.5-.78125c.14012-.265048.276135-.524729.375-.8125.01041-.03078.02133-.06274.03125-.09375.09046-.278085.1388-.579404.1875-.875.0524-.31805.09375-.634029.09375-.96875v-2-68-2c0-3.324-2.676-6-6-6z" fill="url(#c)" opacity=".5"/><path d="m12 90c-3.324 0-6-2.676-6-6v-2-68-2c0-.334721.04135-.6507.09375-.96875.0487-.295596.09704-.596915.1875-.875.00988-.03038.020892-.0636.03125-.09375.098865-.287771.2348802-.547452.375-.8125.1445918-.273507.3156161-.535615.5-.78125s.3737765-.473472.59375-.6875c.439947-.428056.94291-.814526 1.5-1.09375.278545-.139612.5734731-.246947.875-.34375-.2562018.100222-.4867109.236272-.71875.375-.00741.0044-.023866-.0045-.03125 0-.031933.0193-.062293.04251-.09375.0625-.120395.0767-.2310226.163513-.34375.25-.1061728.0808-.2132809.161112-.3125.25-.1779299.161433-.3474596.345388-.5.53125-.1075789.130255-.2183939.265285-.3125.40625-.025089.03838-.038446.08587-.0625.125-.064763.103032-.1302275.204517-.1875.3125-.1010083.194706-.2056748.415701-.28125.625-.00796.02181-.023589.04055-.03125.0625-.0318251.09195-.0358045.186831-.0625.28125-.0303323.106618-.0703894.203031-.09375.3125-.0728786.341512-.125.698205-.125 1.0625v2 68 2c0 2.781848 2.2181517 5 5 5h2 68 2c2.781848 0 5-2.218152 5-5v-2-68-2c0-.364295-.05212-.720988-.125-1.0625-.04415-.206893-.08838-.397658-.15625-.59375-.0077-.02195-.0233-.04069-.03125-.0625-.06274-.173739-.138383-.367449-.21875-.53125-.04158-.0828-.07904-.169954-.125-.25-.0546-.09721-.126774-.18835-.1875-.28125-.09411-.140965-.204921-.275995-.3125-.40625-.143174-.17445-.303141-.346998-.46875-.5-.01117-.0102-.01998-.02115-.03125-.03125-.138386-.125556-.285091-.234436-.4375-.34375-.102571-.07315-.204318-.153364-.3125-.21875-.0074-.0045-.02384.0044-.03125 0-.232039-.138728-.462548-.274778-.71875-.375.301527.0968.596455.204138.875.34375.55709.279224 1.060053.665694 1.5 1.09375.219973.214028.409366.441865.59375.6875s.355408.507743.5.78125c.14012.265048.276135.524729.375.8125.01041.03078.02133.06274.03125.09375.09046.278085.1388.579404.1875.875.0524.31805.09375.634029.09375.96875v2 68 2c0 3.324-2.676 6-6 6z" fill="url(#d)" opacity=".3"/><g><path d="m17 18c-1.662 0-3 1.338-3 3v16c0 1.662 1.338 3 3 3h3v1 1 15 1h-1c-1.662 0-3 1.338-3 3v16c0 1.662 1.338 3 3 3h56c1.662 0 3-1.338 3-3v-16-1h1c1.662 0 3-1.338 3-3v-16c0-1.662-1.338-3-3-3h-3v-1-1-15c0-1.662-1.338-3-3-3z" opacity=".7"/><rect fill="#f00" height="18" rx="1.285714" width="18" x="-24" y="20"/><rect fill="url(#m)" height="18" rx="1.285714" width="18" x="16" y="20"/><path d="m34 29v-7.714285c0-.712286-.573429-1.285715-1.285714-1.285715h-7.714286v9z" fill="url(#l)"/><path d="m16 29v-7.714285c0-.712286.573429-1.285715 1.285715-1.285715h7.714285v9z" fill="url(#k)"/><path d="m16 29v7.714286c0 .712285.573429 1.285714 1.285715 1.285714h7.714285v-9z" fill="url(#j)"/><path d="m34 29v7.714286c0 .712285-.573429 1.285714-1.285714 1.285714h-7.714286v-9z" fill="url(#i)"/><rect fill="url(#n)" height="14" rx="1.272727" transform="rotate(90)" width="14" x="22" y="-32"/><path d="m19.28125 22c-.705091 0-1.28125.576159-1.28125 1.28125v11.4375c0 .705091.576159 1.28125 1.28125 1.28125h11.4375c.705091 0 1.28125-.576159 1.28125-1.28125v-11.4375c0-.705091-.576159-1.28125-1.28125-1.28125zm0 1.09375h11.4375c.11617 0 .1875.07133.1875.1875v11.4375c0 .11617-.07133.1875-.1875.1875h-11.4375c-.11617 0-.1875-.07133-.1875-.1875v-11.4375c0-.11617.07133-.1875.1875-.1875z" fill="url(#o)"/><path d="m17.28125 19c-1.244887 0-2.28125 1.036362-2.28125 2.28125v15.4375c0 1.244888 1.036363 2.28125 2.28125 2.28125h15.4375c1.244887 0 2.28125-1.036363 2.28125-2.28125v-15.4375c0-1.244887-1.036363-2.28125-2.28125-2.28125zm0 1h15.4375c.712286 0 1.28125.568964 1.28125 1.28125v15.4375c0 .712286-.568964 1.28125-1.28125 1.28125h-15.4375c-.712286 0-1.28125-.568964-1.28125-1.28125v-15.4375c0-.712286.568964-1.28125 1.28125-1.28125z" fill="#fff" opacity=".2"/><g transform="translate(20)"><rect fill="url(#m)" height="18" rx="1.285714" width="18" x="16" y="20"/><path d="m34 29v-7.714285c0-.712286-.573429-1.285715-1.285714-1.285715h-7.714286v9z" fill="url(#l)"/><path d="m16 29v-7.714285c0-.712286.573429-1.285715 1.285715-1.285715h7.714285v9z" fill="url(#k)"/><path d="m16 29v7.714286c0 .712285.573429 1.285714 1.285715 1.285714h7.714285v-9z" fill="url(#j)"/><path d="m34 29v7.714286c0 .712285-.573429 1.285714-1.285714 1.285714h-7.714286v-9z" fill="url(#i)"/><rect fill="url(#n)" height="14" rx="1.272727" transform="rotate(90)" width="14" x="22" y="-32"/><path d="m19.28125 22c-.705091 0-1.28125.576159-1.28125 1.28125v11.4375c0 .705091.576159 1.28125 1.28125 1.28125h11.4375c.705091 0 1.28125-.576159 1.28125-1.28125v-11.4375c0-.705091-.576159-1.28125-1.28125-1.28125zm0 1.09375h11.4375c.11617 0 .1875.07133.1875.1875v11.4375c0 .11617-.07133.1875-.1875.1875h-11.4375c-.11617 0-.1875-.07133-.1875-.1875v-11.4375c0-.11617.07133-.1875.1875-.1875z" fill="url(#o)"/><path d="m17.28125 19c-1.244887 0-2.28125 1.036362-2.28125 2.28125v15.4375c0 1.244888 1.036363 2.28125 2.28125 2.28125h15.4375c1.244887 0 2.28125-1.036363 2.28125-2.28125v-15.4375c0-1.244887-1.036363-2.28125-2.28125-2.28125zm0 1h15.4375c.712286 0 1.28125.568964 1.28125 1.28125v15.4375c0 .712286-.568964 1.28125-1.28125 1.28125h-15.4375c-.712286 0-1.28125-.568964-1.28125-1.28125v-15.4375c0-.712286.568964-1.28125 1.28125-1.28125z" fill="#fff" opacity=".2"/></g><g transform="translate(40)"><rect fill="url(#m)" height="18" rx="1.285714" width="18" x="16" y="20"/><path d="m34 29v-7.714285c0-.712286-.573429-1.285715-1.285714-1.285715h-7.714286v9z" fill="url(#l)"/><path d="m16 29v-7.714285c0-.712286.573429-1.285715 1.285715-1.285715h7.714285v9z" fill="url(#k)"/><path d="m16 29v7.714286c0 .712285.573429 1.285714 1.285715 1.285714h7.714285v-9z" fill="url(#j)"/><path d="m34 29v7.714286c0 .712285-.573429 1.285714-1.285714 1.285714h-7.714286v-9z" fill="url(#i)"/><rect fill="url(#n)" height="14" rx="1.272727" transform="rotate(90)" width="14" x="22" y="-32"/><path d="m19.28125 22c-.705091 0-1.28125.576159-1.28125 1.28125v11.4375c0 .705091.576159 1.28125 1.28125 1.28125h11.4375c.705091 0 1.28125-.576159 1.28125-1.28125v-11.4375c0-.705091-.576159-1.28125-1.28125-1.28125zm0 1.09375h11.4375c.11617 0 .1875.07133.1875.1875v11.4375c0 .11617-.07133.1875-.1875.1875h-11.4375c-.11617 0-.1875-.07133-.1875-.1875v-11.4375c0-.11617.07133-.1875.1875-.1875z" fill="url(#o)"/><path d="m17.28125 19c-1.244887 0-2.28125 1.036362-2.28125 2.28125v15.4375c0 1.244888 1.036363 2.28125 2.28125 2.28125h15.4375c1.244887 0 2.28125-1.036363 2.28125-2.28125v-15.4375c0-1.244887-1.036363-2.28125-2.28125-2.28125zm0 1h15.4375c.712286 0 1.28125.568964 1.28125 1.28125v15.4375c0 .712286-.568964 1.28125-1.28125 1.28125h-15.4375c-.712286 0-1.28125-.568964-1.28125-1.28125v-15.4375c0-.712286.568964-1.28125 1.28125-1.28125z" fill="#fff" opacity=".2"/></g><g transform="translate(6 20)"><rect fill="url(#m)" height="18" rx="1.285714" width="18" x="16" y="20"/><path d="m34 29v-7.714285c0-.712286-.573429-1.285715-1.285714-1.285715h-7.714286v9z" fill="url(#l)"/><path d="m16 29v-7.714285c0-.712286.573429-1.285715 1.285715-1.285715h7.714285v9z" fill="url(#k)"/><path d="m16 29v7.714286c0 .712285.573429 1.285714 1.285715 1.285714h7.714285v-9z" fill="url(#j)"/><path d="m34 29v7.714286c0 .712285-.573429 1.285714-1.285714 1.285714h-7.714286v-9z" fill="url(#i)"/><rect fill="url(#n)" height="14" rx="1.272727" transform="rotate(90)" width="14" x="22" y="-32"/><path d="m19.28125 22c-.705091 0-1.28125.576159-1.28125 1.28125v11.4375c0 .705091.576159 1.28125 1.28125 1.28125h11.4375c.705091 0 1.28125-.576159 1.28125-1.28125v-11.4375c0-.705091-.576159-1.28125-1.28125-1.28125zm0 1.09375h11.4375c.11617 0 .1875.07133.1875.1875v11.4375c0 .11617-.07133.1875-.1875.1875h-11.4375c-.11617 0-.1875-.07133-.1875-.1875v-11.4375c0-.11617.07133-.1875.1875-.1875z" fill="url(#o)"/><path d="m17.28125 19c-1.244887 0-2.28125 1.036362-2.28125 2.28125v15.4375c0 1.244888 1.036363 2.28125 2.28125 2.28125h15.4375c1.244887 0 2.28125-1.036363 2.28125-2.28125v-15.4375c0-1.244887-1.036363-2.28125-2.28125-2.28125zm0 1h15.4375c.712286 0 1.28125.568964 1.28125 1.28125v15.4375c0 .712286-.568964 1.28125-1.28125 1.28125h-15.4375c-.712286 0-1.28125-.568964-1.28125-1.28125v-15.4375c0-.712286.568964-1.28125 1.28125-1.28125z" fill="#fff" opacity=".2"/></g><g transform="translate(26 20)"><rect fill="url(#m)" height="18" rx="1.285714" width="18" x="16" y="20"/><path d="m34 29v-7.714285c0-.712286-.573429-1.285715-1.285714-1.285715h-7.714286v9z" fill="url(#l)"/><path d="m16 29v-7.714285c0-.712286.573429-1.285715 1.285715-1.285715h7.714285v9z" fill="url(#k)"/><path d="m16 29v7.714286c0 .712285.573429 1.285714 1.285715 1.285714h7.714285v-9z" fill="url(#j)"/><path d="m34 29v7.714286c0 .712285-.573429 1.285714-1.285714 1.285714h-7.714286v-9z" fill="url(#i)"/><rect fill="url(#n)" height="14" rx="1.272727" transform="rotate(90)" width="14" x="22" y="-32"/><path d="m19.28125 22c-.705091 0-1.28125.576159-1.28125 1.28125v11.4375c0 .705091.576159 1.28125 1.28125 1.28125h11.4375c.705091 0 1.28125-.576159 1.28125-1.28125v-11.4375c0-.705091-.576159-1.28125-1.28125-1.28125zm0 1.09375h11.4375c.11617 0 .1875.07133.1875.1875v11.4375c0 .11617-.07133.1875-.1875.1875h-11.4375c-.11617 0-.1875-.07133-.1875-.1875v-11.4375c0-.11617.07133-.1875.1875-.1875z" fill="url(#o)"/><path d="m17.28125 19c-1.244887 0-2.28125 1.036362-2.28125 2.28125v15.4375c0 1.244888 1.036363 2.28125 2.28125 2.28125h15.4375c1.244887 0 2.28125-1.036363 2.28125-2.28125v-15.4375c0-1.244887-1.036363-2.28125-2.28125-2.28125zm0 1h15.4375c.712286 0 1.28125.568964 1.28125 1.28125v15.4375c0 .712286-.568964 1.28125-1.28125 1.28125h-15.4375c-.712286 0-1.28125-.568964-1.28125-1.28125v-15.4375c0-.712286.568964-1.28125 1.28125-1.28125z" fill="#fff" opacity=".2"/></g><g transform="translate(46 20)"><rect fill="url(#m)" height="18" rx="1.285714" width="18" x="16" y="20"/><path d="m34 29v-7.714285c0-.712286-.573429-1.285715-1.285714-1.285715h-7.714286v9z" fill="url(#l)"/><path d="m16 29v-7.714285c0-.712286.573429-1.285715 1.285715-1.285715h7.714285v9z" fill="url(#k)"/><path d="m16 29v7.714286c0 .712285.573429 1.285714 1.285715 1.285714h7.714285v-9z" fill="url(#j)"/><path d="m34 29v7.714286c0 .712285-.573429 1.285714-1.285714 1.285714h-7.714286v-9z" fill="url(#i)"/><rect fill="url(#n)" height="14" rx="1.272727" transform="rotate(90)" width="14" x="22" y="-32"/><path d="m19.28125 22c-.705091 0-1.28125.576159-1.28125 1.28125v11.4375c0 .705091.576159 1.28125 1.28125 1.28125h11.4375c.705091 0 1.28125-.576159 1.28125-1.28125v-11.4375c0-.705091-.576159-1.28125-1.28125-1.28125zm0 1.09375h11.4375c.11617 0 .1875.07133.1875.1875v11.4375c0 .11617-.07133.1875-.1875.1875h-11.4375c-.11617 0-.1875-.07133-.1875-.1875v-11.4375c0-.11617.07133-.1875.1875-.1875z" fill="url(#o)"/><path d="m17.28125 19c-1.244887 0-2.28125 1.036362-2.28125 2.28125v15.4375c0 1.244888 1.036363 2.28125 2.28125 2.28125h15.4375c1.244887 0 2.28125-1.036363 2.28125-2.28125v-15.4375c0-1.244887-1.036363-2.28125-2.28125-2.28125zm0 1h15.4375c.712286 0 1.28125.568964 1.28125 1.28125v15.4375c0 .712286-.568964 1.28125-1.28125 1.28125h-15.4375c-.712286 0-1.28125-.568964-1.28125-1.28125v-15.4375c0-.712286.568964-1.28125 1.28125-1.28125z" fill="#fff" opacity=".2"/></g><g transform="translate(42 40)"><rect fill="url(#m)" height="18" rx="1.285714" width="18" x="16" y="20"/><path d="m34 29v-7.714285c0-.712286-.573429-1.285715-1.285714-1.285715h-7.714286v9z" fill="url(#l)"/><path d="m16 29v-7.714285c0-.712286.573429-1.285715 1.285715-1.285715h7.714285v9z" fill="url(#k)"/><path d="m16 29v7.714286c0 .712285.573429 1.285714 1.285715 1.285714h7.714285v-9z" fill="url(#j)"/><path d="m34 29v7.714286c0 .712285-.573429 1.285714-1.285714 1.285714h-7.714286v-9z" fill="url(#i)"/><rect fill="url(#n)" height="14" rx="1.272727" transform="rotate(90)" width="14" x="22" y="-32"/><path d="m19.28125 22c-.705091 0-1.28125.576159-1.28125 1.28125v11.4375c0 .705091.576159 1.28125 1.28125 1.28125h11.4375c.705091 0 1.28125-.576159 1.28125-1.28125v-11.4375c0-.705091-.576159-1.28125-1.28125-1.28125zm0 1.09375h11.4375c.11617 0 .1875.07133.1875.1875v11.4375c0 .11617-.07133.1875-.1875.1875h-11.4375c-.11617 0-.1875-.07133-.1875-.1875v-11.4375c0-.11617.07133-.1875.1875-.1875z" fill="url(#o)"/><path d="m17.28125 19c-1.244887 0-2.28125 1.036362-2.28125 2.28125v15.4375c0 1.244888 1.036363 2.28125 2.28125 2.28125h15.4375c1.244887 0 2.28125-1.036363 2.28125-2.28125v-15.4375c0-1.244887-1.036363-2.28125-2.28125-2.28125zm0 1h15.4375c.712286 0 1.28125.568964 1.28125 1.28125v15.4375c0 .712286-.568964 1.28125-1.28125 1.28125h-15.4375c-.712286 0-1.28125-.568964-1.28125-1.28125v-15.4375c0-.712286.568964-1.28125 1.28125-1.28125z" fill="#fff" opacity=".2"/></g><path d="m19.285714 60h35.428572c.712285 0 1.285714.573429 1.285714 1.285714v15.428572c0 .712285-.573429 1.285714-1.285714 1.285714h-35.428572c-.712285 0-1.285714-.573429-1.285714-1.285714v-15.428572c0-.712285.573429-1.285714 1.285714-1.285714z" fill="url(#v)"/><path d="m56 69v-7.714285c0-.712286-.573429-1.285715-1.285714-1.285715h-7.714286v9z" fill="url(#u)"/><path d="m18 69v-7.714285c0-.712286.573429-1.285715 1.285715-1.285715h7.714285v9z" fill="url(#t)"/><path d="m18 69v7.714286c0 .712285.573429 1.285714 1.285715 1.285714h7.714285v-9z" fill="url(#s)"/><path d="m56 69v7.714286c0 .712285-.573429 1.285714-1.285714 1.285714h-7.714286v-9z" fill="url(#r)"/><path d="m63.272727-54h11.454546c.705091 0 1.272727.567636 1.272727 1.272727v31.454546c0 .705091-.567636 1.272727-1.272727 1.272727h-11.454546c-.705091 0-1.272727-.567636-1.272727-1.272727v-31.454546c0-.705091.567636-1.272727 1.272727-1.272727z" fill="url(#q)" transform="rotate(90)"/><path d="m21.28125 62c-.705091 0-1.28125.576159-1.28125 1.28125v11.4375c0 .705091.576159 1.28125 1.28125 1.28125h31.4375c.705091 0 1.28125-.576159 1.28125-1.28125v-11.4375c0-.705091-.576159-1.28125-1.28125-1.28125zm0 1.09375h31.4375c.11617 0 .1875.07133.1875.1875v11.4375c0 .11617-.07133.1875-.1875.1875h-31.4375c-.11617 0-.1875-.07133-.1875-.1875v-11.4375c0-.11617.07133-.1875.1875-.1875z" fill="url(#p)"/><path d="m19.28125 59c-1.244887 0-2.28125 1.036362-2.28125 2.28125v15.4375c0 1.244888 1.036363 2.28125 2.28125 2.28125h35.4375c1.244887 0 2.28125-1.036363 2.28125-2.28125v-15.4375c0-1.244887-1.036363-2.28125-2.28125-2.28125zm0 1h35.4375c.712286 0 1.28125.568964 1.28125 1.28125v15.4375c0 .712286-.568964 1.28125-1.28125 1.28125h-35.4375c-.712286 0-1.28125-.568964-1.28125-1.28125v-15.4375c0-.712286.568964-1.28125 1.28125-1.28125z" fill="#fff" opacity=".2"/><path d="m14 37v1c0 1.662 1.338 3 3 3h3v-1h-3c-1.662 0-3-1.338-3-3zm68 20c0 1.662-1.338 3-3 3h-1v1h1c1.662 0 3-1.338 3-3zm-66 20v1c0 1.662 1.338 3 3 3h56c1.662 0 3-1.338 3-3v-1c0 1.662-1.338 3-3 3h-56c-1.662 0-3-1.338-3-3z" fill="#fff" opacity=".6"/><g fill="#333"><path d="m27.363281 32.439941-.786133-2.011718h-3.134765l-.791016 2.011718h-.966797l2.807617-6.879882h1.059571l2.763672 6.879882zm-1.948242-5.009765c-.05209-.130203-.102543-.262039-.151367-.395508-.04558-.133458-.08627-.253901-.12207-.361328-.03581-.110671-.06674-.201817-.09277-.273438-.02279-.07486-.03581-.120436-.03906-.136718-.0065.01628-.02116.06186-.04395.136718-.02279.07488-.05371.167649-.09277.278321-.03581.110682-.07813.232753-.126953.366211-.04558.133468-.09278.265304-.141602.395507l-.878906 2.260743h2.573242l-.883789-2.270508"/><g><path d="m27.166992 66.353516c-.390628.000006-.737308.06511-1.040039.195312-.299482.130214-.55176.315761-.756836.556641-.201825.24089-.354819.530604-.458984.86914-.104168.338546-.156252.714522-.15625 1.12793-.000002.413415.05534.792646.166015 1.137695.113931.341799.275064.636395.483399.883789.211586.247397.468747.439455.771484.576172.305987.13672.649411.205079 1.030274.205078.266923.000001.509435-.03418.727539-.102539.221349-.07161.419917-.170897.595703-.297851.179031-.126952.338536-.276692.478515-.449219.139969-.175779.263666-.369464.371094-.581055l.761719.38086c-.123705.257163-.276699.49642-.458984.717773-.182298.221355-.397142.413412-.644532.576172-.244146.162761-.522466.291341-.834961.385742-.309249.09115-.655928.136719-1.040039.136719-.556644 0-1.044924-.08789-1.464843-.263672-.416669-.179036-.766604-.426432-1.049805-.742187-.279949-.31901-.48991-.696613-.629883-1.132813-.139974-.436195-.209961-.913083-.209961-1.430664 0-.537105.07324-1.022131.219727-1.455078.149738-.432937.36621-.800776.649414-1.103516.286456-.305983.638019-.540358 1.054687-.703125.416664-.166008.891924-.249016 1.425782-.249023.732417.000007 1.344395.143236 1.835937.429687.49153.286465.852858.711269 1.083984 1.274414l-.883789.292969c-.06511-.162755-.153-.317377-.263672-.463867-.110682-.149734-.249028-.28157-.415039-.395508-.16602-.113926-.361333-.205072-.585937-.273437-.221359-.06835-.475265-.102533-.761719-.102539"/><path d="m33.231445 72.535156c-.133466.03581-.270184.06348-.410156.08301-.136721.02279-.296226.03418-.478516.03418-.703126 0-1.054688-.398763-1.054687-1.196289v-3.525391h-.610352v-.639648h.644532l.258789-1.181641h.585937v1.181641h.976563v.639648h-.976563v3.334961c-.000001.253907.04069.432944.12207.537109.08463.100913.229491.151368.434571.151368.08463 0 .166013-.0065.24414-.01953.08138-.01302.169269-.0293.263672-.04883v.649414"/><path d="m33.993164 72.574219v-4.052735c-.000001-.110673-.0016-.222977-.0049-.336914 0-.117183-.0016-.229487-.0049-.336914-.0033-.107417-.0065-.208328-.0098-.302734-.0033-.0944-.0065-.179031-.0098-.253906h.830078c.0033.07488.0065.161138.0098.258789.0065.09441.01139.192062.01465.292968.0065.100917.0098.198573.0098.292969.0033.09115.0049.169275.0049.234375h.01953c.06185-.201818.126952-.375972.195313-.522461.07161-.149734.15462-.271805.249023-.366211.0944-.09765.206704-.169265.336914-.214843.130206-.04882.288083-.07324.473633-.07324.07161.000006.139971.0065.205078.01953.0651.0098.115557.01954.151367.0293v.805665c-.0586-.01627-.126956-.02766-.205078-.03418-.07813-.0098-.166018-.01464-.263672-.01465-.201825.000005-.374351.04558-.517578.136719-.139976.09115-.255536.218103-.34668.38086-.08789.159509-.152996.351566-.195312.576171-.04232.221358-.06348.463871-.06348.727539v2.753907h-.878906"/><path d="m37.313477 72.574219v-7.246094h.878906v7.246094z"/></g><path d="m47.744141 32.439941h-5.478516v-.698242l4.189453-5.419922h-3.833008v-.761718h4.892578v.678711l-4.189453 5.439453h4.418946z"/><path d="m62.485352 32.439941v-6.879882h5.219726v.761718h-4.287109v2.207032h3.99414v.751953h-3.99414v2.397461h4.487304v.761718z"/><path d="m34.417969 48.968262c-.000008.485029-.06348.929364-.19043 1.333008-.123705.400392-.304369.751954-.541992 1.054687-.234381.302735-.524095.550131-.869141.742188-.341802.188802-.730799.3125-1.166992.371093.06836.208333.144852.385742.229492.532227.08789.146484.18717.265298.297852.356445.110672.0944.232742.162759.366211.205078.136713.04557.28808.06836.454101.06836.09114-.000002.188796-.0065.292969-.01953.10416-.01302.193679-.02767.268555-.04395v.654297c-.123704.02929-.260423.05371-.410157.07324-.14649.02279-.299484.03418-.458984.03418-.279953-.000002-.524093-.04232-.732422-.126953-.208338-.081377-.392257-.200192-.551758-.356441-.156254-.152996-.291345-.341798-.405273-.566406-.113936-.22461-.214847-.478516-.302734-.761719-.514326-.02604-.9668-.131835-1.357422-.317382-.387372-.188802-.711265-.439453-.97168-.751954-.257162-.315753-.450847-.683592-.581055-1.103515-.130208-.423175-.195313-.882159-.195312-1.376953-.000001-.537106.07487-1.022131.224609-1.455078.149739-.432938.369465-.800776.65918-1.103516.289712-.305983.646157-.540358 1.069336-.703125.426429-.166009.91471-.249016 1.464844-.249023.54687.000007 1.031896.08301 1.455078.249023.426426.166022.782871.402025 1.069336.708008.289707.305995.509433.675461.659179 1.108398.149733.432947.224602.914718.22461 1.445313m-.952149 0c-.000006-.413408-.05372-.789384-.161133-1.12793-.104172-.338537-.260422-.62825-.46875-.869141-.205083-.240879-.460617-.426426-.766601-.55664-.305994-.130202-.659184-.195306-1.05957-.195313-.41016.000007-.76986.06511-1.079102.195313-.309247.130214-.568036.315761-.776367.55664-.20508.240891-.359702.530604-.463867.869141-.100913.338546-.151369.714522-.151368 1.12793-.000001.413414.05208.792646.15625 1.137695.107421.341799.263671.638023.46875.888672.208332.247397.465493.441082.771485.581055.309242.136719.664059.205078 1.064453.205078.429683 0 .799149-.06999 1.108398-.209961.312495-.139973.568029-.333658.766602-.581055.201817-.250649.349929-.548501.444336-.893555.09765-.345049.146478-.721025.146484-1.127929"/><path d="m53.875977 50.540527c-.000007.289715-.05697.556642-.170899.800782-.110683.244141-.283209.455729-.517578.634765-.23438.175782-.530604.314128-.888672.415039-.354822.09766-.776371.146485-1.264648.146485-.856123 0-1.52344-.14974-2.001953-.449219-.478517-.299479-.782879-.732421-.913086-1.298828l.90332-.180664c.04557.179038.115558.341798.209961.488281.0944.146486.221352.273439.380859.380859.162759.104168.362954.185548.600586.244141.237628.05859.522458.08789.854492.08789.276689 0 .530595-.02279.761719-.06836.231116-.04883.429683-.122069.595703-.219726.166011-.09766.294592-.222981.385742-.375977.0944-.156248.141597-.341795.141602-.556641-.000005-.224607-.05209-.406898-.15625-.546875-.100916-.139971-.244146-.255531-.429688-.346679-.185551-.09114-.406905-.167641-.664062-.229492-.257165-.06185-.541996-.128578-.854492-.200196-.19206-.04231-.385745-.08789-.581055-.136718-.19206-.05208-.377606-.112302-.556641-.180665-.175783-.07161-.341798-.154618-.498046-.249023-.156252-.0944-.291343-.206702-.405274-.336914-.113933-.133459-.203451-.286454-.268555-.458984-.0651-.175777-.09766-.3776-.09766-.605469-.000001-.325516.0651-.603836.195313-.834961.133462-.234369.317381-.426426.551758-.576172.234373-.149733.511065-.258782.830078-.327148.319007-.06835.664059-.102532 1.035156-.102539.426428.000007.791011.03419 1.09375.102539.30273.06511.558263.164394.766601.297851.208328.13347.374344.299486.498047.498047.126948.195318.227859.423183.302735.683594l-.917969.161133c-.04558-.166011-.11231-.314122-.200195-.444336-.08464-.130203-.196945-.239252-.336914-.327149-.139979-.08788-.310877-.154616-.512696-.200195-.198571-.04557-.432946-.06835-.703125-.06836-.319013.000006-.587568.0293-.805664.08789-.214846.05535-.388999.131842-.522461.229492-.13021.09766-.224611.213222-.283203.34668-.05534.130214-.08301.271815-.08301.424805-.000001.205083.05045.374353.151368.507812.104164.130213.244138.239262.419921.327149.175779.08789.37923.161137.610352.219726.231117.0586.476885.117192.737305.175781.211584.04883.421545.09929.629882.151368.211585.04883.413407.109053.605469.180664.192053.06836.371089.149743.53711.24414.169265.09441.315749.209964.439453.34668.123692.136722.21972.297854.288086.483398.07161.18555.107415.403648.107422.654297"/><path d="m74.134766 48.929199c-.000007.57292-.08627 1.079104-.258789 1.518555-.172533.436199-.408535.80241-.708008 1.098633-.299485.292969-.654302.515951-1.064453.668945-.406906.14974-.846358.224609-1.31836.224609h-2.573242v-6.879882h2.275391c.530595.000006 1.018876.06674 1.464843.200195.449214.130215.834956.333665 1.157227.610351.32226.273444.57291.621751.751953 1.044922.182285.423182.273431.927739.273438 1.513672m-.9375 0c-.000006-.465491-.06674-.862626-.200196-1.191406-.133469-.332026-.320643-.603836-.561523-.81543-.24089-.211583-.528976-.366205-.864258-.463867-.33529-.100905-.703128-.151361-1.103516-.151367h-1.323242v5.385742h1.533203c.361325.000001.694983-.05859 1.000977-.175781.30924-.117187.576167-.29134.800781-.522461.224604-.231118.400385-.519204.527344-.864258.126947-.345049.190424-.74544.19043-1.201172"/><path d="m67 64-4 4h2v4 1h4v-1-4h2zm0 1 2 2h-1v1 4h-2v-4-1h-1z"/></g></g></svg>